<svg xmlns="http://www.w3.org/2000/svg" viewBox="0 0 512 512"><circle fill="#006263" cx="256" cy="256" r="256"></circle><path id="path2722" fill="#fff" d="M257 363.4c17.6 0 35.2-3.6 51.3-10.8 15.1-6.8 28.8-16.6 39.7-29.1 10.6-12.1 18.5-26.5 22.5-42.2 4.4-17.3 3.9-35.7-1.4-52.8-5.6-18.1-16.6-34.2-30.7-46.8-1.8-1.6-3.6-3.1-5.5-4.6 10.8 11.6 18.6 26 22 41.6 3.1 14.1 2.5 28.9-1.7 42.8-3.7 12.4-10.3 23.8-18.8 33.5-8.8 9.9-19.7 18-31.7 23.7-12.6 6-26.4 9.4-40.4 10-14.2.7-28.5-1.4-41.9-6.2-12.6-4.5-24.2-11.5-34.1-20.6-9.6-8.8-17.3-19.6-22.4-31.5-5.3-12.5-7.6-26.2-6.6-39.7 1.2-16.1 7-31.6 16.4-44.6 2.3-3.1 4.7-6.1 7.3-8.9-15 11.7-27 27.2-33.9 44.9-6.6 16.9-8.3 35.6-4.9 53.5 3 15.8 10.1 30.7 20 43.4 10.2 13 23.4 23.5 38.1 31 15.6 7.9 32.8 12.4 50.2 13.2 2.3.1 4.4.2 6.5.2z"></path></svg>