<svg xmlns="http://www.w3.org/2000/svg" viewBox="0 0 512 512" enable-background="new 0 0 512 512"><circle cx="256" cy="256" r="256" fill="#FCFCFC"/><g fill="#A2001D"><path d="M105.739 237.449l-27.826-50.483 27.826-49.691 27.826 49.691zM50.087 237.449l-27.826-50.483 27.826-49.691 27.826 49.691zM105.739 374.725l-27.826-50.483 27.826-49.691 27.826 49.691zM50.087 374.725l-27.826-50.483 27.826-49.691 27.826 49.691zM133.565 49.692l-7.878-14.068c-14.13 8.372-27.383 18.065-39.594 28.909l19.646 35.641 27.826-50.482zM105.739 411.826l-19.854 35.456c12.2 10.858 25.444 20.566 39.568 28.955l8.113-14.719-27.827-49.692z"/></g><path d="M155.826 322.783v168.863c30.769 13.097 64.622 20.354 100.174 20.354 110.071 0 203.906-69.472 240.077-166.957l-340.251-22.26z" fill="#6DA544"/><path d="M496.077 345.043c10.291-27.733 15.923-57.729 15.923-89.043 0-141.384-114.616-256-256-256-35.549 0-69.405 7.253-100.174 20.348v324.696h340.251z" fill="#A2001D"/></svg>