<svg xmlns="http://www.w3.org/2000/svg" viewBox="0 0 512 512" enable-background="new 0 0 512 512"><circle cx="256" cy="256" r="256" fill="#F0F0F0"/><g fill="#338AF3"><path d="M256 189.217h247.181c-6.419-23.814-16.175-46.255-28.755-66.783h-218.426v66.783zM96.643 456.348h318.713c23.363-18.608 43.399-41.21 59.069-66.783h-436.851c15.671 25.572 35.707 48.175 59.069 66.783zM89.043 61.939c-20.126 17.331-37.525 37.74-51.469 60.496h51.469v-60.496zM256 256v-66.783h-100.174v66.783h-66.783v-66.783h-80.224c-5.739 21.294-8.819 43.676-8.819 66.783s3.08 45.489 8.819 66.783h494.363c5.738-21.294 8.818-43.676 8.818-66.783h-256zM256 0c-35.549 0-69.404 7.253-100.174 20.348v102.087h100.174v-66.783h159.357c-43.731-34.828-99.108-55.652-159.357-55.652z"/></g></svg>