<svg xmlns="http://www.w3.org/2000/svg" viewBox="0 0 512 512" enable-background="new 0 0 512 512"><path d="M512 256c0 141.384-114.616 256-256 256s-256-114.616-256-256c0 .06 256-255.971 256-256 141.384 0 256 114.616 256 256z" fill="#0052B4"/><g fill="#F0F0F0"><path d="M256 0l-.043.001.043-.001zM255.315 256h.685v-.685l-.685.685zM256 133.566v-133.565h-.043c-141.365.023-255.957 114.628-255.957 255.999h133.565v-75.212l75.212 75.212h46.539l.685-.685v-46.536l-75.213-75.213h75.212z"/></g><g fill="#D80027"><path d="M129.515 33.391c-40.039 22.799-73.325 56.085-96.124 96.124v126.485h66.783v-155.826h155.826v-66.783h-126.485zM256 224.519l-90.953-90.952h-31.481l122.433 122.433h.001v-31.481z"/></g><g fill="#F0F0F0"><path d="M154.395 300.522l14.05 29.378 31.727-7.333-14.208 29.302 25.514 20.233-31.767 7.16.089 32.564-25.405-20.373-25.404 20.373.089-32.564-31.768-7.16 25.515-20.233-14.21-29.302 31.729 7.333zM383.284 356.174l7.025 14.689 15.864-3.667-7.105 14.651 12.758 10.117-15.884 3.58.044 16.282-12.702-10.187-12.702 10.187.044-16.282-15.883-3.58 12.757-10.117-7.104-14.651 15.863 3.667zM317.933 200.348l7.024 14.69 15.864-3.668-7.104 14.651 12.757 10.117-15.883 3.58.043 16.282-12.701-10.187-12.702 10.187.043-16.282-15.883-3.58 12.757-10.117-7.104-14.651 15.864 3.668zM383.284 111.304l7.025 14.69 15.864-3.667-7.104 14.651 12.756 10.116-15.883 3.581.044 16.282-12.702-10.187-12.702 10.187.044-16.282-15.883-3.581 12.756-10.116-7.103-14.651 15.863 3.667zM440.368 178.087l7.024 14.69 15.864-3.668-7.104 14.651 12.757 10.117-15.884 3.581.044 16.281-12.701-10.186-12.702 10.186.043-16.281-15.883-3.581 12.757-10.117-7.104-14.651 15.863 3.668zM399.55 256l5.525 17.006h17.882l-14.467 10.511 5.527 17.005-14.467-10.51-14.466 10.51 5.525-17.005-14.466-10.511h17.881z"/></g></svg>