<svg xmlns="http://www.w3.org/2000/svg" viewBox="0 0 512 512" enable-background="new 0 0 512 512"><circle cx="256" cy="256" r="256" fill="#F0F0F0"/><g fill="#0052B4"><path d="M52.92 100.142c-20.109 26.163-35.272 56.318-44.101 89.077h133.178l-89.077-89.077zM503.181 189.219c-8.829-32.758-23.993-62.913-44.101-89.076l-89.075 89.076h133.176zM8.819 322.784c8.83 32.758 23.993 62.913 44.101 89.075l89.074-89.075h-133.175zM411.858 52.921c-26.163-20.109-56.317-35.272-89.076-44.102v133.177l89.076-89.075zM100.142 459.079c26.163 20.109 56.318 35.272 89.076 44.102v-133.176l-89.076 89.074zM189.217 8.819c-32.758 8.83-62.913 23.993-89.075 44.101l89.075 89.075v-133.176zM322.783 503.181c32.758-8.83 62.913-23.993 89.075-44.101l-89.075-89.075v133.176zM370.005 322.784l89.075 89.076c20.108-26.162 35.272-56.318 44.101-89.076h-133.176z"/></g><g fill="#D80027"><path d="M509.833 222.609h-220.441v-220.442c-10.931-1.423-22.075-2.167-33.392-2.167-11.319 0-22.461.744-33.391 2.167v220.441h-220.442c-1.423 10.931-2.167 22.075-2.167 33.392 0 11.319.744 22.461 2.167 33.391h220.441v220.442c10.931 1.423 22.073 2.167 33.392 2.167 11.317 0 22.461-.743 33.391-2.167v-220.441h220.442c1.423-10.931 2.167-22.073 2.167-33.392 0-11.317-.744-22.461-2.167-33.391zM322.783 322.784l114.236 114.236c5.254-5.252 10.266-10.743 15.048-16.435l-97.802-97.802h-31.482v.001zM189.217 322.784h-.002l-114.235 114.235c5.252 5.254 10.743 10.266 16.435 15.048l97.802-97.804v-31.479zM189.217 189.219v-.002l-114.236-114.237c-5.254 5.252-10.266 10.743-15.048 16.435l97.803 97.803h31.481zM322.783 189.219l114.237-114.238c-5.252-5.254-10.743-10.266-16.435-15.047l-97.802 97.803v31.482z"/></g></svg>