<svg xmlns="http://www.w3.org/2000/svg" viewBox="0 0 512 512" enable-background="new 0 0 512 512"><path d="M512 256c0 141.384-114.616 256-256 256s-256-114.616-256-256c0 .061 256-255.972 256-256 141.384 0 256 114.616 256 256z" fill="#0052B4"/><g fill="#F0F0F0"><path d="M256 0h-.043.043zM255.315 256h.685v-.685l-.685.685zM256 133.565v-133.565h-.043c-141.365.024-255.957 114.629-255.957 256h133.565v-75.211l75.212 75.211h46.539l.685-.685v-46.537l-75.213-75.213h75.212z"/></g><g fill="#D80027"><path d="M129.515 33.391c-40.039 22.799-73.325 56.085-96.124 96.124v126.485h66.783v-155.82600000000002h155.826v-66.783h-126.485zM256 224.519l-90.953-90.953s-31.481.002-31.481 0v.002l122.433 122.432h.001v-31.481zM443.33 189.959l5.525 17.006h17.881l-14.466 10.51 5.526 17.005-14.466-10.509-14.467 10.509 5.526-17.005-14.467-10.51h17.881zM379.411 312.393l8.289 25.51h26.821l-21.7 15.764 8.29 25.509-21.7-15.765-21.7 15.765 8.29-25.509-21.7-15.764h26.821zM381.825 112.046l6.908 21.259h22.351l-18.084 13.135 6.908 21.258-18.083-13.139-18.082 13.139 6.907-21.258-18.082-13.135h22.35zM320.322 189.217l8.288 25.51h26.822l-21.7 15.764 8.29 25.509-21.7-15.765-21.7 15.765 8.29-25.509-21.7-15.764h26.821z"/></g></svg>