<svg xmlns="http://www.w3.org/2000/svg" viewBox="0 0 512 512"><circle fill="#f0f0f0" cx="256" cy="256" r="256"/><path fill="#002495" d="M298.7 298.7v209.7c107.1-18 191.9-102.6 209.7-209.7h-209.7zM298.7 3.6v209.7h209.7c-18-107.2-102.5-191.7-209.7-209.7zM3.6 298.7c18.3 108.6 103.8 192 209.7 209.7v-209.7h-209.7zM3.6 213.3h209.7v-209.7c-107.1 18-191.9 102.6-209.7 209.7z"/><path fill="#f0f0f0" d="M85.8 164.8c-1.5-2-1.3-6.6 1.5-8.1 5.2-2.6 9 2.7 9 8.3h-6.1v6.9h12.8c-.2 3.5-2.1 6.4-5.7 7.9.5 1.5 2.6 4.5 5.6 4.4.6 3.2 1.2 5 3.8 7.9 2.7-2.9 3.2-4.7 3.8-7.9 3 .2 5.2-2.9 5.6-4.4-3.6-1.5-5.5-4.4-5.7-7.9h12.8v-6.9h-6.1c0-5.5 3.8-10.8 9-8.3 2.7 1.6 2.8 6.1 1.5 8.1h.2c13-2.4 11.7-14.9 7.3-19.5-8.4-8.6-21.7-1.1-22.1 19.7h-3.6c0-11.1 1.9-14.6 6.9-28.5 2.7-6.8 1.7-17.3-9.5-29.8-22.6 25.1-2.6 31.6-2.6 58.3h-3.6c-.3-20.6-13.6-28.4-22.1-19.7-4.4 4.5-5.7 17.1 7.3 19.5zm298.6 0c-1.5-2-1.3-6.6 1.5-8.1 5.2-2.6 9 2.7 9 8.3h-6.1v6.9h12.8c-.2 3.5-2.1 6.4-5.7 7.9.5 1.5 2.6 4.5 5.6 4.4.6 3.2 1.2 5 3.8 7.9 2.7-2.9 3.2-4.7 3.8-7.9 3 .2 5.2-2.9 5.6-4.4-3.6-1.5-5.5-4.4-5.7-7.9h12.8v-6.9h-6.1c0-5.5 3.8-10.8 9-8.3 2.7 1.6 2.8 6.1 1.5 8.1h.2c13-2.4 11.7-14.9 7.3-19.5-8.4-8.6-21.7-1.1-22.1 19.7h-3.6c0-26.9 20.1-33.1-2.6-58.3-22.6 25.1-2.6 31.6-2.6 58.3h-3.6c-.3-20.6-13.6-28.4-22.1-19.7-4.4 4.5-5.6 17.1 7.3 19.5zm-271.5 213.6h-3.6c0-26.9 20.1-33.1-2.6-58.3-22.6 25.1-2.6 31.6-2.6 58.3h-3.6c-.3-20.6-13.6-28.4-22.1-19.7-4.4 4.5-5.7 17.1 7.3 19.5-1.5-2-1.3-6.6 1.5-8.1 5.2-2.6 9 2.7 9 8.3h-6.1v6.9h12.8c-.2 3.5-2.1 6.4-5.7 7.9.5 1.5 2.6 4.5 5.6 4.4.6 3.2 1.2 5 3.8 7.9 2.7-2.9 3.2-4.7 3.8-7.9 3 .2 5.2-2.9 5.6-4.4-3.6-1.5-5.5-4.4-5.7-7.9h12.8v-6.9h-6.1c0-5.5 3.8-10.8 9-8.3 2.7 1.6 2.8 6.1 1.5 8.1h.2c13-2.4 11.7-14.9 7.3-19.5-8.4-8.7-21.7-1.1-22.1 19.7zm320.8-19.7c-8.4-8.6-21.7-1.1-22.1 19.7h-3.6c0-11.1 1.9-14.6 6.9-28.5 2.7-6.8 1.7-17.3-9.5-29.8-11.2 12.5-12.2 22.9-9.5 29.8 4.9 13.9 6.9 17.4 6.9 28.5h-3.6c-.3-20.6-13.6-28.4-22.1-19.7-4.4 4.5-5.7 17.1 7.3 19.5-1.5-2-1.3-6.6 1.5-8.1 5.2-2.6 9 2.7 9 8.3h-6.1v6.9h12.8c-.2 3.5-2.1 6.4-5.7 7.9.5 1.5 2.6 4.5 5.6 4.4.6 3.2 1.2 5 3.8 7.9 2.7-2.9 3.2-4.7 3.8-7.9 3 .2 5.2-2.9 5.6-4.4-3.6-1.5-5.5-4.4-5.7-7.9h12.8v-6.9h-6.1c0-5.5 3.8-10.8 9-8.3 2.7 1.6 2.8 6.1 1.5 8.1h.2c13-2.5 11.7-15 7.3-19.5z"/></svg>