<svg xmlns="http://www.w3.org/2000/svg" viewBox="0 0 512 512"><circle fill="#F0F0F0" cx="256" cy="256" r="256"></circle><path fill="#09c" d="M20.4 155.8l419.1 278.7c22.1-22.7 40-49.5 52.5-79.2l-418.8-278.5c-22.2 22.6-40.2 49.3-52.8 79z"></path><g id="g4979"><path id="path558" fill="#005BBF" d="M252.56 361.18c-60.1 0-58.2-56.604-58.2-56.604v-86.807h116.4v86.807c0 .1 2.1 56.604-58.2 56.604"></path><path d="M252.56 361.68c-18.5 0-33-5.3-43.2-15.901-16.1-16.701-15.5-41.003-15.5-41.203v-87.307h117.4v87.307c0 .2.7 24.502-15.4 41.203-10.2 10.601-24.7 15.901-43.3 15.901zm-57.6-143.411v86.307c0 .3-.6 24.102 15.2 40.503 10 10.301 24.3 15.501 42.5 15.501 18.3 0 32.6-5.2 42.5-15.601 15.8-16.401 15.2-40.303 15.1-40.503v-86.307h-115.3z"></path><path id="path560" fill="#D81126" d="M252.06 163.165s-12.4-6-24.1 2.9c0 0-21.1-3-22.7 17.201-.1.8-.2 2.3.2 2.8.4.4.8 1.3.8 1.8 0 .6.4.9.5 1.1 1.1 2.2-.2 2.7 1.4 4.3 1.6 1.7.6 7.101 2.1 8.901.4.5 1.2 1.8 1.2 2.8 0 1.1.4 4 .2 4.8-1.2 4.8 51.5 11.901 78.3 2.1 1.4-.5 1.6-1.6 1.5-2.3-.1-.6 0-2.6.4-3.1s2.9-4.5 2.4-5.3c-.5-.8-.5-2.4 0-3 .5-.6 2.1-3.7 2.4-4.9.3-1.3.4-2.7.9-3.2 1-.7.5-2.7 2-3.8 0 0 1.1-5.1.4-7.601-.7-2.5-4.4-13.301-19.8-11.101.1 0-11.3-8.601-28.1-4.4"></path><path d="M210.96 209.468c.1-.3-.1-1.8-.1-2.7-.2-1.8 0-2.9-1.1-4.2-1.8-2-.8-7.501-2.1-8.801-1.2-1.3-1-2.1-1.1-3.1-.1-1.6-1-1.6-1-2.9 0-.3-.3-1-.6-1.3-1-1.2-.7-11.501 6.1-17.001 6.3-5 14.9-4.4 16.7-4.2 10.9-8.101 22.5-3.7 24.4-2.9 15.6-3.8 26.4 3.2 28.3 4.4 15.8-2.2 19.7 9.301 20.3 11.701.6 2.2 0 6.1-.5 8.301-.6.5-1 1.1-1.2 1.7-.7 3.1-1 .9-1.5 3.8-.4 2.4-2 5.4-2.8 6.4-.3.3-.3 1.6 0 2.1.9 1.4-2.4 6.1-2.4 6.2-.2.3-.3 2-.2 2.5.2 1.1-.3 2.5-2 3.1-25.4 9.301-80.9 3.7-79.2-3.1zm1-38.903c-3.5 2.8-5.5 7.101-5.9 12.601-.1 1.3-.1 2 0 2.2.4.5.9 1.5.9 2.3 0 .2.4.7.5.9 1.1 1.9 0 2.7 1.2 4.1 1.8 2 .8 7.101 2.2 8.901.6.6 1.4 2 1.4 3.3 0 1 .5 4.1.2 5 0 .2.8.8 1.8 1.2 30.8 9.801 77.3 2.7 76.5-1.3-.1-.7-.1-3 .5-3.7.5-.7 2.3-3.7 2.3-4.5-.6-1-.6-3 .1-3.8.4-.5 2-3.5 2.2-4.6.3-1.3.3-2.9 1.2-3.6.3-.2.5-1.5.6-1.8 0-.1.4-1.1 1.1-1.8.2-1 .9-5 .4-7.001-1.9-7.101-8.1-12.101-19.3-10.501-5.6-4.2-16.4-7.301-27.8-4.5l-.1-.4-.1.4-.1-.6-.3.5c-6.1-3-15.9-2.9-23.6 3-4.9-.8-11.6.3-15.9 3.7zm81.7 31.002zm0-.1z"></path><path id="path562" fill="#BCAC0B" d="M293.56 200.767c-47.1-14.901-83.4-.7-83.4-.7.8 3.9 1.8 1.2 1.8 7.501 0 .7-.5 3.7 2.2 3.6 0 0 32.7-12.801 75.4.7 2-1.8.6-4.4 2.1-6.5.6-.8 1.9-3.4 1.9-4.6"></path><path id="path563" fill="#C8B100" d="M249.96 279.273h-20.5s-2 18.301 13.7 23.802v1.7h3.4v2.2s-5.8 5.2-.8 11.101v1.8h.8v2.9h.9v4.8s-.8 17.101-17.5 25.202v1h44.7v-1c-16.7-8.201-17.5-25.202-17.5-25.202v-4.8h.9v-2.8h.8v-1.8c5-6-.8-11.101-.8-11.101v-2.2h3.4v-1.7c15.8-5.5 13.7-23.802 13.7-23.802h-25.2"></path></g></svg>