<svg xmlns="http://www.w3.org/2000/svg" viewBox="0 0 512 512" enable-background="new 0 0 512 512"><path d="M512 256c0-31.314-5.632-61.311-15.923-89.043l-240.077-11.131-240.077 11.13c-10.29 27.733-15.923 57.73-15.923 89.044s5.633 61.311 15.923 89.043l240.077 11.131 240.077-11.13c10.291-27.733 15.923-57.73 15.923-89.044z" fill="#0052B4"/><path d="M256 512c110.071 0 203.906-69.472 240.077-166.957h-480.154c36.171 97.485 130.006 166.957 240.077 166.957z" fill="#FF9811"/><path d="M15.923 166.957h480.155c-36.172-97.485-130.007-166.957-240.078-166.957s-203.906 69.472-240.077 166.957z" fill="#D80027"/></svg>