<svg xmlns="http://www.w3.org/2000/svg" viewBox="0 0 512 512" enable-background="new 0 0 512 512"><circle cx="256" cy="256" r="256" fill="#F0F0F0"/><g fill="#D80027"><path d="M509.833 222.609h-220.441v-220.442c-10.931-1.423-22.075-2.167-33.392-2.167s-22.461.744-33.391 2.167v220.441h-220.442c-1.423 10.931-2.167 22.075-2.167 33.392 0 11.319.744 22.461 2.167 33.391h220.441v220.442c10.931 1.423 22.075 2.167 33.392 2.167s22.461-.743 33.391-2.167v-220.441h220.442c1.423-10.931 2.167-22.073 2.167-33.392 0-11.317-.744-22.461-2.167-33.391zM155.826 122.435v-33.392h-33.391v33.392h-33.392v33.391h33.392v33.391h33.391v-33.391h33.391v-33.391zM389.565 122.435v-33.392h-33.391v33.392h-33.391v33.391h33.391v33.391h33.391v-33.391h33.392v-33.391zM155.826 356.174v-33.391h-33.391v33.391h-33.392v33.391h33.392v33.392h33.391v-33.392h33.391v-33.391zM389.565 356.174v-33.391h-33.391v33.391h-33.391v33.391h33.391v33.392h33.391v-33.392h33.392v-33.391z"/></g></svg>