<svg xmlns="http://www.w3.org/2000/svg" viewBox="0 0 512 512" enable-background="new 0 0 512 512"><path d="M0 256c0 44.35 11.283 86.064 31.127 122.435l224.873 22.261 224.873-22.261c19.844-36.371 31.127-78.085 31.127-122.435s-11.283-86.064-31.127-122.435l-224.873-22.261-224.873 22.261c-19.844 36.371-31.127 78.085-31.127 122.435z" fill="#D80027"/><g fill="#0052B4"><path d="M31.127 133.565h449.745c-43.418-79.576-127.837-133.565-224.872-133.565s-181.454 53.989-224.873 133.565zM256 512c97.035 0 181.454-53.989 224.873-133.565h-449.746c43.419 79.576 127.838 133.565 224.873 133.565z"/></g><path fill="#F0F0F0" d="M345.043 306.087v-33.391h-22.26v-44.522l-22.261-22.261-22.261 22.261v-44.522l-22.261-22.261-22.261 22.261v44.522l-22.261-22.261-22.261 22.261v44.522h-22.26v33.391h-22.261v33.391h222.608v-33.391z"/></svg>