<svg xmlns="http://www.w3.org/2000/svg" viewBox="0 0 512 512" enable-background="new 0 0 512 512"><circle cx="256" cy="256" r="256" fill="#F0F0F0"/><path d="M345.043 256c0 22.261-39.866 77.913-89.043 77.913s-89.043-55.652-89.043-77.913c0-49.178 39.866-89.043 89.043-89.043s89.043 39.865 89.043 89.043z" fill="#D80027"/><path d="M345.043 256c0 49.178-39.866 89.043-89.043 89.043s-89.043-39.865-89.043-89.043" fill="#0052B4"/><path d="M350.442 334.705l23.611-23.611 15.741 15.741-23.611 23.611zM311.085 374.059l23.611-23.611 15.741 15.741-23.611 23.611zM397.67 381.917l23.611-23.611 15.741 15.741-23.611 23.611zM358.314 421.278l23.611-23.611 15.741 15.741-23.611 23.611zM374.055 358.313l23.611-23.611 15.741 15.741-23.611 23.611zM334.709 397.667l23.611-23.611 15.741 15.741-23.611 23.611zM397.678 177.289l-62.962-62.962 15.741-15.741 62.962 62.962zM334.713 161.558l-23.611-23.611 15.74-15.74 23.611 23.611zM374.06 200.907l-23.611-23.611 15.74-15.74 23.611 23.611zM381.915 114.336l-23.611-23.611 15.741-15.741 23.611 23.611zM421.283 153.688l-23.611-23.611 15.741-15.741 23.611 23.611zM90.723 358.318l62.962 62.962-15.741 15.741-62.962-62.962zM153.68 374.051l23.611 23.611-15.74 15.74-23.611-23.611zM114.331 334.703l23.611 23.611-15.741 15.741-23.611-23.611zM137.943 311.091l62.962 62.962-15.741 15.741-62.962-62.962zM153.684 90.72l-62.962 62.962-15.741-15.741 62.962-62.962zM177.287 114.325l-62.962 62.962-15.741-15.741 62.962-62.962zM200.912 137.947l-62.962 62.962-15.74-15.74 62.962-62.962z"/></svg>