<svg xmlns="http://www.w3.org/2000/svg" viewBox="0 0 512 512" enable-background="new 0 0 512 512"><circle cx="256" cy="256" r="256" fill="#FFDA44"/><g fill="#D80027"><path d="M294.932 509.057c41.636-6.352 79.962-22.748 112.456-46.618l-151.388-206.439 38.932 253.057zM217.067 2.943c-41.635 6.352-79.961 22.748-112.457 46.617l151.39 206.44-38.933-253.057zM104.61 462.439c32.494 23.869 70.82 40.265 112.455 46.619l38.935-253.058-151.39 206.439zM49.56 104.61c-23.87 32.496-40.264 70.821-46.617 112.457l253.057 38.933-206.44-151.39zM2.943 294.932c6.352 41.636 22.748 79.962 46.618 112.456l206.439-151.388-253.057 38.932zM509.057 217.067c-6.353-41.635-22.748-79.961-46.618-112.456l-206.439 151.389 253.057-38.933zM407.388 49.559c-32.495-23.869-70.82-40.264-112.456-46.616l-38.932 253.057 151.388-206.441zM462.441 407.389c23.869-32.495 40.264-70.822 46.618-112.456l-253.059-38.933 206.441 151.389z"/><circle cx="256" cy="256" r="89.043"/></g><circle cx="256" cy="256" r="66.783" fill="#FFDA44"/></svg>