<svg xmlns="http://www.w3.org/2000/svg" viewBox="0 0 512 512" enable-background="new 0 0 512 512"><circle cx="256" cy="256" r="256" fill="#F0F0F0"/><path d="M256 0c-101.494 0-189.19 59.065-230.598 144.696h461.195c-41.407-85.631-129.104-144.696-230.597-144.696z"/><path d="M256 512c-101.494 0-189.19-59.065-230.598-144.696h461.195c-41.407 85.631-129.104 144.696-230.597 144.696z" fill="#496E2D"/><path d="M499.911 178.087h-487.822c-7.842 24.569-12.089 50.744-12.089 77.913s4.247 53.344 12.089 77.913h487.821c7.843-24.569 12.09-50.744 12.09-77.913s-4.247-53.344-12.089-77.913z" fill="#A2001D"/><g fill="#F0F0F0"><path d="M335.715 118.301l-30.317-13.993-49.398 111.851-49.398-111.851-30.317 13.993 61.328 137.699-61.328 137.699 30.317 13.993 49.398-111.851 49.398 111.851 30.317-13.993-61.328-137.699zM276.591 131.489c-11.736-12.817-20.591-20.185-20.591-20.185s-8.855 7.367-20.591 20.185v249.02c11.736 12.819 20.591 20.187 20.591 20.187s8.855-7.367 20.591-20.186v-249.021z"/></g><g fill="#A2001D"><path d="M200.348 179.243v153.512c12.402 21.975 27.581 39.987 38.957 51.929v-257.369c-11.376 11.941-26.556 29.954-38.957 51.928zM311.652 179.243c-12.403-21.975-27.581-39.987-38.957-51.928v257.369c11.375-11.942 26.554-29.954 38.957-51.929v-153.512z"/></g><path d="M311.652 179.243v153.512c12.555-22.249 22.261-48.558 22.261-76.755s-9.706-54.507-22.261-76.757zM200.348 179.243v153.512c-12.555-22.249-22.261-48.558-22.261-76.755s9.706-54.507 22.261-76.757z"/></svg>