<svg xmlns="http://www.w3.org/2000/svg" viewBox="0 0 512 512" enable-background="new 0 0 512 512"><circle cx="256" cy="256" r="256" fill="#F0F0F0"/><path d="M256 0c-110.071 0-203.906 69.472-240.077 166.957h480.155c-36.172-97.485-130.007-166.957-240.078-166.957z" fill="#D80027"/><path d="M256 512c110.071 0 203.906-69.472 240.077-166.957h-480.154c36.171 97.485 130.006 166.957 240.077 166.957z"/><g fill="#6DA544"><path d="M152.962 194.783l13.813 42.512h44.703l-36.165 26.278 13.814 42.514-36.165-26.275-36.165 26.275 13.814-42.514-36.165-26.278h44.703zM359.038 194.783l13.813 42.512h44.704l-36.166 26.278 13.814 42.514-36.165-26.275-36.165 26.275 13.814-42.514-36.165-26.278h44.703z"/></g></svg>